# xmcd
#
# Track frame offsets:
#	150
#	19487
#	40585
#	67465
#	88875
#	108411
#	129465
#	153311
#	180214
#	200265
#
# Disc length: 2993 seconds
#
# Revision: 7534333
# Processed by: cddbd v1.5.2PL0 Copyright (c) Steve Scherf et al.
# Submitted via: EZCDAudioConverter 8.0.2.1
#
DISCID=840baf0a
DTITLE=Lâm Vũ, Lâm Hùng - Tình Tiếc Nuối
DYEAR=2002
DGENRE=
TTITLE0=Lâm Hùng - Khi vắng em
TTITLE1=Lâm Vũ - Mong hơi ấm mùa đông
TTITLE2=Lâm Hùng - Người tình
TTITLE3=Lâm Vũ - Phố mưa bay
TTITLE4=Lâm Hùng - Em đừng là bóng đêm
TTITLE5=Lâm Vũ - Đêm hoang
TTITLE6=Lâm Vũ - Hờn ghen
TTITLE7=Lâm Hùng - Còn mãi lời ru
TTITLE8=Lâm Vũ - Lối xưa
TTITLE9=Lâm Hùng - Tình Tiếc Nuối
EXTD=
EXTT0=
EXTT1=
EXTT2=
EXTT3=
EXTT4=
EXTT5=
EXTT6=
EXTT7=
EXTT8=
EXTT9=
PLAYORDER=
